<svg xmlns="http://www.w3.org/2000/svg" viewBox="0 0 342.36 342.36" width="310.36" height="310.36" fill="transparent"><defs><style>@import url('https://fonts.googleapis.com/css2?family=Caveat+Brush&amp;family=Source+Code+Pro&amp;family=Source+Sans+Pro&amp;family=Crimson+Pro&amp;display=block');</style></defs><g transform="translate(16, 16) rotate(0, 155.18, 155.18)"><g id="05cec3a8-a957-4cfd-01f0-8fd9c6988182_svg" class="tl-centered-g"><path d="M 309.11,88.76 Q 309.11,88.76 309.12,94.94 309.14,101.13 309.16,108.89 309.18,116.66 309.20,124.82 309.22,132.99 309.25,141.25 309.27,149.52 309.29,157.82 309.31,166.11 309.34,174.41 309.36,182.71 309.38,191.01 309.40,199.32 309.42,207.62 309.45,215.92 309.47,224.22 309.49,232.53 309.51,240.83 309.54,249.13 309.56,257.43 309.58,265.74 309.60,274.04 309.62,282.34 309.65,290.65 309.67,298.95 308.18,302.56 306.70,306.16 300.09,307.09 293.47,308.02 285.55,308.26 277.62,308.51 269.36,308.58 261.11,308.65 252.76,308.67 244.42,308.70 236.06,308.71 227.69,308.73 219.32,308.74 210.95,308.75 202.58,308.76 194.21,308.77 185.84,308.78 177.46,308.79 169.09,308.80 160.72,308.81 152.35,308.82 143.98,308.83 135.60,308.84 127.23,308.85 118.86,308.86 110.49,308.87 102.12,308.88 93.74,308.89 85.37,308.90 77.00,308.91 68.63,308.92 60.26,308.93 51.88,308.94 43.51,308.95 35.14,308.96 26.77,308.97 18.40,308.98 10.02,308.99 6.40,307.51 2.77,306.02 1.88,299.43 0.98,292.85 0.78,284.96 0.57,277.07 0.55,268.85 0.52,260.64 0.55,252.33 0.57,244.03 0.60,235.70 0.63,227.38 0.66,219.05 0.70,210.72 0.74,202.39 0.77,194.06 0.81,185.72 0.84,177.39 0.88,169.06 0.91,160.73 0.95,152.40 0.99,144.06 1.02,135.73 1.06,127.40 1.09,119.07 1.13,110.74 1.17,102.40 1.20,94.07 1.24,85.74 1.27,77.41 1.31,69.08 1.34,60.74 1.38,52.41 1.42,44.08 1.45,35.75 1.49,27.42 1.52,19.08 1.56,10.75 3.06,7.14 4.56,3.52 11.13,2.62 17.71,1.71 25.58,1.49 33.45,1.27 41.65,1.23 49.85,1.19 58.14,1.19 66.42,1.20 74.73,1.21 83.04,1.23 91.35,1.25 99.66,1.26 107.97,1.28 116.29,1.30 124.60,1.32 132.91,1.34 141.23,1.36 149.54,1.38 157.86,1.40 166.17,1.42 174.48,1.43 182.80,1.45 191.11,1.47 199.43,1.49 207.74,1.51 216.05,1.53 224.37,1.55 232.68,1.57 240.99,1.59 249.31,1.60 257.62,1.62 265.94,1.64 274.25,1.66 282.56,1.68 290.88,1.70 299.19,1.72 302.80,3.21 306.41,4.71 307.35,11.27 308.29,17.84 308.54,25.70 308.80,33.56 308.88,41.75 308.96,49.94 309.00,58.22 309.03,66.49 309.06,74.79 309.09,83.08 309.11,91.38 309.13,99.68 309.16,107.98 309.18,116.29 309.20,124.59 309.22,132.89 309.25,141.20 309.27,149.50 309.29,157.80 309.31,166.10 309.34,177.25" fill="#f1f2f3" pointer-events="none"/><path d="M 310.39,88.76 Q 310.39,88.76 310.37,94.94 310.36,101.13 310.34,108.89 310.32,116.65 310.31,124.82 310.30,132.98 310.28,141.25 310.27,149.52 310.33,157.81 310.38,166.11 310.44,174.41 310.50,182.71 310.56,191.01 310.62,199.31 310.68,207.61 310.74,215.92 310.79,224.22 310.85,232.52 310.91,240.83 310.97,249.13 311.03,257.43 311.09,265.73 311.14,274.04 311.20,282.34 311.26,290.67 311.31,298.99 309.45,303.14 307.58,307.29 300.64,308.43 293.69,309.58 285.68,309.80 277.67,310.01 269.39,310.05 261.12,310.08 252.77,310.07 244.42,310.06 236.06,310.04 227.69,310.01 219.32,309.99 210.95,309.96 202.58,309.94 194.21,309.91 185.84,309.89 177.46,309.86 169.09,309.84 160.72,309.81 152.35,309.86 143.98,309.90 135.61,309.95 127.23,310.00 118.86,310.04 110.49,310.09 102.12,310.13 93.75,310.18 85.37,310.23 77.00,310.27 68.63,310.32 60.26,310.37 51.89,310.41 43.51,310.46 35.14,310.51 26.77,310.55 18.37,310.59 9.98,310.64 5.81,308.77 1.64,306.90 0.53,299.98 -0.57,293.06 -0.75,285.08 -0.92,277.11 -0.91,268.88 -0.90,260.64 -0.84,252.33 -0.79,244.03 -0.72,235.70 -0.65,227.38 -0.58,219.04 -0.51,210.71 -0.44,202.38 -0.36,194.05 -0.29,185.72 -0.22,177.39 -0.15,169.06 -0.08,160.72 -0.08,152.39 -0.08,144.06 -0.08,135.73 -0.08,127.40 -0.08,119.06 -0.08,110.73 -0.08,102.40 -0.08,94.07 -0.08,85.74 -0.08,77.40 -0.08,69.07 -0.08,60.74 -0.08,52.41 -0.08,44.07 -0.08,35.74 -0.08,27.41 -0.07,19.05 -0.07,10.70 1.80,6.55 3.68,2.40 10.59,1.27 17.50,0.15 25.45,-0.03 33.41,-0.22 41.63,-0.23 49.85,-0.23 58.14,-0.19 66.42,-0.15 74.73,-0.10 83.04,-0.05 91.35,-0.00 99.66,0.05 107.98,0.10 116.29,0.16 124.60,0.21 132.92,0.27 141.23,0.32 149.54,0.38 157.86,0.36 166.17,0.34 174.49,0.33 182.80,0.31 191.11,0.29 199.43,0.27 207.74,0.26 216.06,0.24 224.37,0.22 232.68,0.21 241.00,0.19 249.31,0.17 257.63,0.15 265.94,0.14 274.25,0.12 282.57,0.10 290.90,0.09 299.24,0.08 303.39,1.95 307.53,3.82 308.69,10.72 309.85,17.62 310.07,25.57 310.30,33.51 310.35,41.72 310.39,49.93 310.39,58.21 310.40,66.48 310.39,74.78 310.38,83.08 310.36,91.38 310.35,99.68 310.34,107.98 310.32,116.28 310.31,124.59 310.30,132.89 310.28,141.19 310.27,149.50 310.33,157.80 310.38,166.10 310.45,177.25 310.52,188.39 310.49,188.57 310.46,188.76 310.37,188.92 310.29,189.08 310.15,189.21 310.02,189.34 309.85,189.42 309.68,189.50 309.50,189.52 309.31,189.54 309.13,189.50 308.95,189.46 308.79,189.36 308.63,189.27 308.51,189.13 308.39,188.99 308.32,188.81 308.26,188.64 308.25,188.46 308.23,188.27 308.28,188.09 308.33,187.92 308.44,187.76 308.54,187.61 308.69,187.50 308.83,187.38 309.01,187.32 309.18,187.26 309.37,187.26 309.55,187.26 309.73,187.32 309.91,187.38 310.05,187.49 310.20,187.60 310.31,187.76 310.41,187.91 310.46,188.09 310.51,188.27 310.50,188.45 310.49,188.64 310.42,188.81 310.35,188.98 310.24,189.12 310.12,189.26 309.96,189.36 309.80,189.46 309.62,189.50 309.44,189.54 309.25,189.52 309.07,189.50 308.90,189.42 308.73,189.34 308.60,189.21 308.46,189.09 308.38,188.92 308.29,188.76 308.26,188.58 308.23,188.40 308.23,188.40 308.23,188.40 308.23,177.25 308.24,166.11 308.25,157.80 308.27,149.50 308.21,141.20 308.15,132.90 308.09,124.59 308.03,116.29 307.98,107.99 307.92,99.69 307.86,91.39 307.80,83.08 307.74,74.79 307.67,66.50 307.60,58.23 307.53,49.96 307.41,41.78 307.29,33.61 307.01,25.84 306.72,18.06 306.01,11.83 305.29,5.60 302.21,4.48 299.14,3.36 290.85,3.31 282.56,3.26 274.25,3.20 265.93,3.15 257.62,3.09 249.30,3.04 240.99,2.98 232.68,2.93 224.36,2.87 216.05,2.82 207.74,2.76 199.42,2.71 191.11,2.65 182.79,2.60 174.48,2.54 166.17,2.49 157.85,2.43 149.54,2.38 141.23,2.39 132.91,2.41 124.60,2.43 116.28,2.45 107.97,2.46 99.66,2.48 91.35,2.50 83.03,2.52 74.73,2.54 66.42,2.56 58.14,2.59 49.86,2.62 41.68,2.70 33.49,2.78 25.71,3.02 17.93,3.27 11.68,3.96 5.44,4.65 4.32,7.73 3.20,10.81 3.13,19.12 3.07,27.42 2.99,35.76 2.92,44.09 2.85,52.42 2.78,60.75 2.71,69.08 2.63,77.41 2.56,85.75 2.49,94.08 2.42,102.41 2.35,110.74 2.27,119.07 2.20,127.41 2.13,135.74 2.06,144.07 1.99,152.40 1.91,160.73 1.91,169.07 1.91,177.40 1.91,185.73 1.92,194.06 1.92,202.39 1.92,210.72 1.92,219.05 1.92,227.38 1.92,235.71 1.93,244.03 1.94,252.33 1.96,260.63 2.02,268.83 2.08,277.03 2.31,284.83 2.54,292.63 3.22,298.89 3.90,305.14 6.99,306.25 10.07,307.35 18.42,307.37 26.77,307.40 35.14,307.42 43.51,307.45 51.88,307.47 60.25,307.50 68.63,307.53 77.00,307.55 85.37,307.58 93.74,307.60 102.11,307.63 110.49,307.65 118.86,307.68 127.23,307.71 135.60,307.73 143.97,307.76 152.35,307.78 160.72,307.81 169.09,307.76 177.46,307.72 185.83,307.67 194.21,307.62 202.58,307.58 210.95,307.53 219.32,307.48 227.69,307.44 236.05,307.39 244.42,307.34 252.75,307.27 261.09,307.21 269.33,307.11 277.57,307.00 285.41,306.73 293.25,306.46 299.53,305.75 305.82,305.04 306.92,301.97 308.03,298.90 308.04,290.63 308.05,282.35 308.06,274.04 308.07,265.74 308.09,257.44 308.10,249.14 308.12,240.83 308.13,232.53 308.14,224.23 308.16,215.92 308.17,207.62 308.19,199.32 308.20,191.02 308.21,182.71 308.23,174.41 308.24,166.11 308.25,157.82 308.27,149.52 308.21,141.26 308.15,132.99 308.09,124.82 308.04,116.66 307.98,108.90 307.92,101.13 307.87,94.95 307.82,88.76 307.83,88.61 307.85,88.45 307.91,88.31 307.96,88.16 308.05,88.04 308.14,87.91 308.25,87.80 308.37,87.70 308.51,87.63 308.64,87.56 308.80,87.52 308.95,87.48 309.10,87.48 309.26,87.48 309.41,87.52 309.56,87.55 309.70,87.62 309.83,87.70 309.95,87.80 310.07,87.90 310.16,88.03 310.24,88.16 310.30,88.30 310.36,88.45 310.37,88.60 Z" fill="#c6cbd1" stroke="#c6cbd1" stroke-width="2" pointer-events="none"/></g><g font-size="28" font-family="Caveat Brush" text-align="left" fill="#c6cbd1" transform-origin="top left" transform="translate(147.18, 139.18)"><text y="18.2"/></g></g><g transform="translate(59.370000000000005, 120.78) rotate(0, 80.3, 80.3)"><g id="2a5fa721-7320-4600-15c4-19bbc87c0123_svg" class="tl-centered-g"><path d="M -0.33,71.82 Q -0.33,71.82 -0.38,65.58 -0.43,59.34 -0.48,51.51 -0.53,43.68 -0.57,35.45 -0.62,27.22 -0.66,18.86 -0.70,10.49 1.16,6.34 3.03,2.19 10.02,1.07 17.00,-0.03 25.05,-0.21 33.09,-0.39 41.40,-0.39 49.71,-0.39 58.09,-0.35 66.47,-0.30 74.88,-0.32 83.28,-0.33 91.69,-0.42 100.09,-0.51 108.50,-0.59 116.91,-0.68 125.32,-0.76 133.73,-0.84 142.16,-0.92 150.59,-1.00 154.77,0.86 158.95,2.73 160.01,9.69 161.07,16.66 161.19,24.68 161.30,32.70 161.23,40.99 161.17,49.28 161.05,57.64 160.94,66.00 160.88,74.38 160.83,82.76 160.84,91.15 160.86,99.53 160.87,107.92 160.88,116.31 160.90,124.70 160.91,133.08 160.92,141.49 160.93,149.90 159.05,154.07 157.16,158.23 150.20,159.34 143.24,160.44 135.23,160.61 127.21,160.78 118.93,160.77 110.66,160.75 102.30,160.69 93.95,160.63 85.58,160.63 77.21,160.64 68.84,160.71 60.46,160.78 52.09,160.85 43.71,160.92 35.34,160.99 26.96,161.06 18.56,161.12 10.16,161.19 5.99,159.32 1.83,157.44 0.74,150.49 -0.34,143.53 -0.48,135.53 -0.63,127.52 -0.59,119.24 -0.55,110.97 -0.47,102.62 -0.39,94.28 -0.36,85.91 -0.34,77.54 -0.39,69.17 -0.44,60.80 -0.47,49.56 -0.51,38.33 -0.47,38.11 -0.44,37.89 -0.33,37.70 -0.23,37.50 -0.07,37.35 0.08,37.20 0.28,37.11 0.48,37.02 0.70,36.99 0.92,36.97 1.13,37.02 1.35,37.07 1.54,37.18 1.72,37.30 1.87,37.46 2.01,37.63 2.09,37.84 2.17,38.04 2.18,38.26 2.19,38.48 2.13,38.69 2.07,38.91 1.95,39.09 1.83,39.27 1.65,39.40 1.47,39.53 1.26,39.60 1.06,39.67 0.84,39.67 0.62,39.67 0.41,39.60 0.20,39.53 0.02,39.40 -0.14,39.26 -0.26,39.08 -0.39,38.90 -0.45,38.68 -0.50,38.47 -0.49,38.25 -0.48,38.03 -0.40,37.83 -0.31,37.62 -0.17,37.46 -0.03,37.29 0.15,37.18 0.34,37.06 0.56,37.02 0.77,36.97 0.99,36.99 1.21,37.02 1.41,37.11 1.61,37.21 1.77,37.36 1.93,37.51 2.03,37.70 2.13,37.90 2.17,38.12 2.20,38.33 2.20,38.33 2.20,38.33 2.09,49.57 1.99,60.81 1.89,69.18 1.79,77.55 1.77,85.91 1.75,94.28 1.81,102.62 1.87,110.96 1.98,119.20 2.08,127.45 2.36,135.29 2.64,143.13 3.36,149.41 4.08,155.69 7.17,156.80 10.25,157.91 18.61,157.98 26.96,158.05 35.34,158.12 43.71,158.20 52.09,158.27 60.46,158.34 68.84,158.42 77.21,158.49 85.58,158.49 93.95,158.49 102.29,158.40 110.64,158.32 118.89,158.19 127.13,158.06 134.98,157.76 142.82,157.46 149.11,156.72 155.39,155.98 156.52,152.88 157.65,149.79 157.77,141.43 157.90,133.06 158.03,124.68 158.16,116.29 158.29,107.90 158.42,99.52 158.55,91.13 158.68,82.75 158.74,74.37 158.79,65.99 158.76,57.63 158.73,49.28 158.66,41.02 158.58,32.76 158.33,24.91 158.09,17.05 157.38,10.76 156.68,4.47 153.59,3.37 150.50,2.27 142.12,2.21 133.73,2.16 125.32,2.10 116.91,2.04 108.50,1.98 100.10,1.92 91.69,1.86 83.28,1.80 74.88,1.82 66.48,1.83 58.11,1.93 49.73,2.03 41.45,2.18 33.17,2.32 25.30,2.63 17.42,2.94 11.11,3.69 4.81,4.44 3.69,7.52 2.57,10.60 2.47,18.91 2.38,27.23 2.28,35.46 2.18,43.69 2.09,51.52 1.99,59.35 1.90,65.59 1.81,71.82 1.79,71.95 1.78,72.08 1.73,72.20 1.68,72.32 1.61,72.43 1.54,72.53 1.44,72.62 1.34,72.70 1.23,72.76 1.11,72.82 0.99,72.85 0.86,72.89 0.73,72.88 0.60,72.88 0.48,72.85 0.35,72.82 0.24,72.76 0.12,72.70 0.03,72.61 -0.06,72.53 -0.13,72.42 -0.21,72.32 -0.25,72.19 -0.30,72.07 -0.31,71.95 Z" fill="#ff2133" stroke="#ff2133" stroke-width="2" pointer-events="none"/></g><g font-size="28" font-family="Caveat Brush" text-align="left" fill="#ff2133" transform-origin="top left" transform="translate(72.3, 64.3)"><text y="18.2"/></g></g><g transform="translate(93.09000000000003, 86.00) rotate(0, 80.3, 80.3)"><g id="77384e79-eb9e-4434-125a-706c9c95bf74_svg" class="tl-centered-g"><path d="M 88.71,-0.22 Q 88.71,-0.22 94.95,-0.27 101.19,-0.31 109.02,-0.35 116.85,-0.40 125.08,-0.44 133.32,-0.47 141.68,-0.51 150.04,-0.54 154.20,1.33 158.35,3.21 159.43,10.18 160.51,17.16 160.64,25.19 160.78,33.22 160.73,41.51 160.69,49.81 160.60,58.18 160.50,66.55 160.47,74.94 160.44,83.33 160.48,91.72 160.52,100.12 160.56,108.51 160.59,116.91 160.63,125.30 160.67,133.70 160.70,142.12 160.73,150.54 158.85,154.71 156.97,158.88 150.01,159.94 143.05,161.00 135.04,161.11 127.03,161.23 118.76,161.16 110.48,161.08 102.13,160.97 93.78,160.85 85.42,160.79 77.05,160.74 68.68,160.75 60.30,160.76 51.93,160.77 43.56,160.78 35.18,160.79 26.81,160.81 18.41,160.81 10.01,160.82 5.85,158.93 1.69,157.05 0.61,150.09 -0.46,143.13 -0.60,135.13 -0.73,127.12 -0.69,118.85 -0.64,110.58 -0.55,102.24 -0.46,93.90 -0.43,85.54 -0.40,77.18 -0.44,68.81 -0.47,60.44 -0.51,52.08 -0.55,43.71 -0.59,35.34 -0.63,26.97 -0.66,18.58 -0.69,10.19 1.18,6.03 3.06,1.86 10.02,0.78 16.98,-0.29 24.99,-0.43 33.00,-0.57 41.27,-0.52 49.55,-0.48 57.90,-0.39 66.25,-0.30 74.61,-0.27 82.98,-0.24 91.35,-0.28 99.73,-0.32 110.97,-0.35 122.21,-0.37 122.42,-0.34 122.64,-0.30 122.84,-0.20 123.03,-0.09 123.18,0.06 123.33,0.22 123.42,0.42 123.51,0.62 123.54,0.84 123.56,1.06 123.51,1.27 123.46,1.49 123.35,1.67 123.24,1.86 123.07,2.00 122.90,2.15 122.69,2.23 122.49,2.31 122.27,2.32 122.05,2.33 121.84,2.27 121.63,2.21 121.44,2.09 121.26,1.96 121.13,1.79 121.00,1.61 120.93,1.40 120.86,1.19 120.86,0.97 120.86,0.75 120.93,0.54 121.00,0.33 121.14,0.16 121.27,-0.01 121.45,-0.13 121.64,-0.25 121.85,-0.31 122.06,-0.37 122.28,-0.35 122.50,-0.34 122.70,-0.26 122.91,-0.18 123.08,-0.03 123.24,0.10 123.36,0.29 123.47,0.48 123.51,0.69 123.56,0.91 123.54,1.13 123.51,1.35 123.42,1.55 123.33,1.75 123.17,1.90 123.02,2.06 122.83,2.17 122.63,2.27 122.41,2.30 122.20,2.34 122.20,2.34 122.20,2.34 110.96,2.22 99.72,2.11 91.35,2.00 82.97,1.90 74.61,1.87 66.24,1.84 57.90,1.89 49.56,1.95 41.31,2.05 33.07,2.15 25.22,2.42 17.38,2.69 11.10,3.40 4.81,4.12 3.70,7.21 2.58,10.29 2.48,18.64 2.37,26.98 2.27,35.35 2.16,43.72 2.05,52.09 1.95,60.45 1.84,68.82 1.74,77.18 1.71,85.54 1.68,93.90 1.73,102.24 1.78,110.58 1.88,118.81 1.98,127.05 2.25,134.89 2.52,142.73 3.23,149.01 3.95,155.29 7.04,156.41 10.13,157.54 18.48,157.67 26.83,157.80 35.20,157.93 43.58,158.06 51.95,158.19 60.32,158.33 68.69,158.46 77.06,158.59 85.43,158.65 93.80,158.71 102.14,158.68 110.48,158.65 118.72,158.58 126.97,158.51 134.81,158.26 142.66,158.02 148.94,157.32 155.22,156.62 156.34,153.52 157.45,150.43 157.55,142.06 157.66,133.69 157.76,125.29 157.87,116.90 157.98,108.50 158.09,100.11 158.19,91.71 158.30,83.32 158.33,74.93 158.36,66.55 158.31,58.18 158.25,49.82 158.16,41.55 158.06,33.29 157.79,25.42 157.52,17.56 156.81,11.26 156.09,4.96 153.02,3.84 149.94,2.73 141.62,2.63 133.31,2.53 125.07,2.42 116.84,2.32 109.01,2.21 101.18,2.11 94.94,2.01 88.70,1.92 88.57,1.90 88.44,1.88 88.32,1.84 88.20,1.79 88.10,1.72 87.99,1.64 87.91,1.55 87.82,1.45 87.76,1.34 87.70,1.22 87.67,1.09 87.64,0.97 87.64,0.84 87.64,0.71 87.67,0.59 87.70,0.46 87.76,0.35 87.82,0.23 87.91,0.14 88.00,0.04 88.10,-0.02 88.21,-0.10 88.33,-0.14 88.45,-0.19 88.58,-0.20 Z" fill="#1c7ed6" stroke="#1c7ed6" stroke-width="2" pointer-events="none"/></g><g font-size="28" font-family="Caveat Brush" text-align="left" fill="#1c7ed6" transform-origin="top left" transform="translate(72.3, 64.3)"><text y="18.2"/></g></g><g transform="translate(129.53999999999996, 49.82) rotate(0, 80.3, 80.3)"><g id="b84a1b02-b018-4a30-122f-2807da46e7ae_svg" class="tl-centered-g"><path d="M 71.79,160.99 Q 71.79,160.99 65.55,161.05 59.31,161.11 51.48,161.17 43.65,161.23 35.41,161.28 27.17,161.34 18.81,161.39 10.44,161.44 6.28,159.57 2.13,157.69 1.04,150.75 -0.03,143.82 -0.18,135.83 -0.32,127.84 -0.28,119.60 -0.25,111.35 -0.16,103.02 -0.08,94.70 -0.06,86.36 -0.03,78.02 -0.08,69.67 -0.13,61.33 -0.17,52.98 -0.22,44.63 -0.27,36.29 -0.31,27.94 -0.35,19.57 -0.39,11.20 1.47,7.04 3.35,2.88 10.28,1.78 17.21,0.68 25.19,0.52 33.17,0.36 41.41,0.38 49.65,0.39 57.97,0.46 66.28,0.52 74.62,0.52 82.95,0.53 91.29,0.46 99.63,0.39 107.97,0.33 116.31,0.26 124.64,0.20 132.98,0.13 141.35,0.07 149.71,0.01 153.87,1.88 158.02,3.75 159.13,10.69 160.25,17.64 160.43,25.63 160.61,33.63 160.61,41.88 160.60,50.14 160.56,58.47 160.51,66.81 160.53,75.16 160.54,83.51 160.62,91.86 160.71,100.22 160.79,108.57 160.87,116.93 160.96,125.29 161.04,133.64 161.12,142.02 161.19,150.40 159.33,154.57 157.46,158.73 150.50,159.82 143.54,160.91 135.53,161.07 127.52,161.22 119.24,161.20 110.96,161.17 102.61,161.10 94.26,161.02 85.89,161.01 77.52,161.00 69.15,161.06 60.77,161.11 49.53,161.16 38.28,161.21 38.07,161.18 37.85,161.14 37.66,161.04 37.46,160.94 37.31,160.78 37.16,160.62 37.07,160.42 36.97,160.22 36.95,160.00 36.93,159.78 36.98,159.56 37.02,159.35 37.14,159.16 37.25,158.97 37.42,158.83 37.59,158.69 37.79,158.60 38.00,158.52 38.22,158.51 38.44,158.50 38.65,158.56 38.86,158.62 39.04,158.74 39.23,158.87 39.36,159.04 39.49,159.22 39.56,159.43 39.63,159.64 39.63,159.86 39.63,160.08 39.56,160.29 39.49,160.49 39.35,160.67 39.22,160.84 39.04,160.97 38.86,161.09 38.64,161.15 38.43,161.21 38.21,161.19 37.99,161.18 37.79,161.10 37.58,161.02 37.42,160.88 37.25,160.73 37.13,160.54 37.02,160.35 36.97,160.14 36.93,159.92 36.95,159.71 36.98,159.49 37.07,159.29 37.16,159.09 37.31,158.93 37.47,158.77 37.66,158.67 37.86,158.56 38.07,158.53 38.29,158.49 38.29,158.49 38.29,158.49 49.53,158.59 60.78,158.68 69.15,158.77 77.52,158.85 85.89,158.87 94.26,158.88 102.61,158.81 110.95,158.74 119.20,158.62 127.44,158.50 135.29,158.22 143.14,157.93 149.42,157.20 155.70,156.47 156.81,153.39 157.91,150.31 157.97,141.98 158.03,133.65 158.09,125.29 158.15,116.93 158.21,108.58 158.27,100.22 158.33,91.86 158.40,83.51 158.38,75.16 158.37,66.81 158.27,58.49 158.17,50.16 158.03,41.94 157.89,33.71 157.58,25.88 157.27,18.06 156.52,11.79 155.77,5.52 152.69,4.41 149.61,3.29 141.30,3.22 132.98,3.14 124.64,3.06 116.30,2.99 107.96,2.91 99.62,2.83 91.29,2.75 82.95,2.67 74.62,2.67 66.29,2.67 57.98,2.75 49.67,2.83 41.46,2.95 33.25,3.08 25.44,3.37 17.63,3.67 11.37,4.40 5.11,5.14 3.99,8.22 2.88,11.30 2.78,19.62 2.69,27.95 2.59,36.29 2.49,44.64 2.39,52.99 2.30,61.34 2.20,69.68 2.10,78.03 2.08,86.37 2.06,94.70 2.12,103.02 2.18,111.34 2.28,119.55 2.39,127.77 2.67,135.59 2.94,143.41 3.66,149.67 4.39,155.93 7.46,157.05 10.54,158.16 18.86,158.24 27.18,158.33 35.41,158.41 43.65,158.50 51.48,158.59 59.32,158.68 65.56,158.76 71.80,158.85 71.92,158.86 72.05,158.88 72.17,158.92 72.29,158.97 72.40,159.04 72.51,159.12 72.59,159.21 72.68,159.31 72.74,159.43 72.80,159.54 72.83,159.67 72.86,159.79 72.86,159.92 72.86,160.05 72.83,160.17 72.80,160.30 72.74,160.41 72.68,160.53 72.59,160.63 72.50,160.72 72.40,160.80 72.29,160.87 72.17,160.91 72.05,160.96 71.92,160.97 Z" fill="#ffc936" stroke="#ffc936" stroke-width="2" pointer-events="none"/></g><g font-size="28" font-family="Caveat Brush" text-align="left" fill="#ffc936" transform-origin="top left" transform="translate(72.3, 64.3)"><text y="18.2"/></g></g></svg>